<svg xmlns="http://www.w3.org/2000/svg" viewBox="0 0 2400 900"><defs><radialGradient id="kb-kb-know-your-equipment-g"><stop offset="0" stop-color="#ff7517" stop-opacity=".16"/><stop offset=".5" stop-color="#ff7517" stop-opacity=".05"/><stop offset="1" stop-color="#ff7517" stop-opacity="0"/></radialGradient></defs><ellipse cx="48" cy="990" rx="1728" ry="891" fill="url(#kb-kb-know-your-equipment-g)"/><polyline points="960,820 2400,820" fill="none" stroke="#b4b4b4" stroke-width="0.7" vector-effect="non-scaling-stroke" stroke-linejoin="round" stroke-opacity="0.2" stroke-linecap="round"/><polyline points="980,820 968,834" fill="none" stroke="#b4b4b4" stroke-width="0.6" vector-effect="non-scaling-stroke" stroke-linejoin="round" stroke-opacity="0.2" stroke-linecap="round"/><polyline points="1040,820 1028,834" fill="none" stroke="#b4b4b4" stroke-width="0.6" vector-effect="non-scaling-stroke" stroke-linejoin="round" stroke-opacity="0.2" stroke-linecap="round"/><polyline points="1100,820 1088,834" fill="none" stroke="#b4b4b4" stroke-width="0.6" vector-effect="non-scaling-stroke" stroke-linejoin="round" stroke-opacity="0.2" stroke-linecap="round"/><polyline points="1160,820 1148,834" fill="none" stroke="#b4b4b4" stroke-width="0.6" vector-effect="non-scaling-stroke" stroke-linejoin="round" stroke-opacity="0.2" stroke-linecap="round"/><polyline points="1220,820 1208,834" fill="none" stroke="#b4b4b4" stroke-width="0.6" vector-effect="non-scaling-stroke" stroke-linejoin="round" stroke-opacity="0.2" stroke-linecap="round"/><polyline points="1280,820 1268,834" fill="none" stroke="#b4b4b4" stroke-width="0.6" vector-effect="non-scaling-stroke" stroke-linejoin="round" stroke-opacity="0.2" stroke-linecap="round"/><polyline points="1340,820 1328,834" fill="none" stroke="#b4b4b4" stroke-width="0.6" vector-effect="non-scaling-stroke" stroke-linejoin="round" stroke-opacity="0.2" stroke-linecap="round"/><polyline points="1400,820 1388,834" fill="none" stroke="#b4b4b4" stroke-width="0.6" vector-effect="non-scaling-stroke" stroke-linejoin="round" stroke-opacity="0.2" stroke-linecap="round"/><polyline points="1460,820 1448,834" fill="none" stroke="#b4b4b4" stroke-width="0.6" vector-effect="non-scaling-stroke" stroke-linejoin="round" stroke-opacity="0.2" stroke-linecap="round"/><polyline points="1520,820 1508,834" fill="none" stroke="#b4b4b4" stroke-width="0.6" vector-effect="non-scaling-stroke" stroke-linejoin="round" stroke-opacity="0.2" stroke-linecap="round"/><polyline points="1580,820 1568,834" fill="none" stroke="#b4b4b4" stroke-width="0.6" vector-effect="non-scaling-stroke" stroke-linejoin="round" stroke-opacity="0.2" stroke-linecap="round"/><polyline points="1640,820 1628,834" fill="none" stroke="#b4b4b4" stroke-width="0.6" vector-effect="non-scaling-stroke" stroke-linejoin="round" stroke-opacity="0.2" stroke-linecap="round"/><polyline points="1700,820 1688,834" fill="none" stroke="#b4b4b4" stroke-width="0.6" vector-effect="non-scaling-stroke" stroke-linejoin="round" stroke-opacity="0.2" stroke-linecap="round"/><polyline points="1760,820 1748,834" fill="none" stroke="#b4b4b4" stroke-width="0.6" vector-effect="non-scaling-stroke" stroke-linejoin="round" stroke-opacity="0.2" stroke-linecap="round"/><polyline points="1820,820 1808,834" fill="none" stroke="#b4b4b4" stroke-width="0.6" vector-effect="non-scaling-stroke" stroke-linejoin="round" stroke-opacity="0.2" stroke-linecap="round"/><polyline points="1880,820 1868,834" fill="none" stroke="#b4b4b4" stroke-width="0.6" vector-effect="non-scaling-stroke" stroke-linejoin="round" stroke-opacity="0.2" stroke-linecap="round"/><polyline points="1940,820 1928,834" fill="none" stroke="#b4b4b4" stroke-width="0.6" vector-effect="non-scaling-stroke" stroke-linejoin="round" stroke-opacity="0.2" stroke-linecap="round"/><polyline points="2000,820 1988,834" fill="none" stroke="#b4b4b4" stroke-width="0.6" vector-effect="non-scaling-stroke" stroke-linejoin="round" stroke-opacity="0.2" stroke-linecap="round"/><polyline points="2060,820 2048,834" fill="none" stroke="#b4b4b4" stroke-width="0.6" vector-effect="non-scaling-stroke" stroke-linejoin="round" stroke-opacity="0.2" stroke-linecap="round"/><polyline points="2120,820 2108,834" fill="none" stroke="#b4b4b4" stroke-width="0.6" vector-effect="non-scaling-stroke" stroke-linejoin="round" stroke-opacity="0.2" stroke-linecap="round"/><polyline points="2180,820 2168,834" fill="none" stroke="#b4b4b4" stroke-width="0.6" vector-effect="non-scaling-stroke" stroke-linejoin="round" stroke-opacity="0.2" stroke-linecap="round"/><polyline points="2240,820 2228,834" fill="none" stroke="#b4b4b4" stroke-width="0.6" vector-effect="non-scaling-stroke" stroke-linejoin="round" stroke-opacity="0.2" stroke-linecap="round"/><polyline points="2300,820 2288,834" fill="none" stroke="#b4b4b4" stroke-width="0.6" vector-effect="non-scaling-stroke" stroke-linejoin="round" stroke-opacity="0.2" stroke-linecap="round"/><polyline points="2360,820 2348,834" fill="none" stroke="#b4b4b4" stroke-width="0.6" vector-effect="non-scaling-stroke" stroke-linejoin="round" stroke-opacity="0.2" stroke-linecap="round"/><polyline points="1266.7,432.1 1338.4,586 1456,600" fill="none" stroke="#b4b4b4" stroke-width="0.6" vector-effect="non-scaling-stroke" stroke-linejoin="round" stroke-opacity="0.3" stroke-linecap="round"/><polyline points="1244.3,406.7 1327.1,573.3 1456,600" fill="none" stroke="#b4b4b4" stroke-width="0.6" vector-effect="non-scaling-stroke" stroke-linejoin="round" stroke-opacity="0.3" stroke-linecap="round"/><polyline points="1199.6,389 1304.8,564.5 1456,600" fill="none" stroke="#b4b4b4" stroke-width="0.6" vector-effect="non-scaling-stroke" stroke-linejoin="round" stroke-opacity="0.3" stroke-linecap="round"/><polyline points="1148,382 1279,561 1456,600" fill="none" stroke="#b4b4b4" stroke-width="0.6" vector-effect="non-scaling-stroke" stroke-linejoin="round" stroke-opacity="0.3" stroke-linecap="round"/><polyline points="1103.9,387 1257,563.5 1456,600" fill="none" stroke="#b4b4b4" stroke-width="0.6" vector-effect="non-scaling-stroke" stroke-linejoin="round" stroke-opacity="0.3" stroke-linecap="round"/><polyline points="1070.7,403.1 1240.3,571.6 1456,600" fill="none" stroke="#b4b4b4" stroke-width="0.6" vector-effect="non-scaling-stroke" stroke-linejoin="round" stroke-opacity="0.3" stroke-linecap="round"/><polyline points="1045.6,427.5 1227.8,583.8 1456,600" fill="none" stroke="#b4b4b4" stroke-width="0.6" vector-effect="non-scaling-stroke" stroke-linejoin="round" stroke-opacity="0.3" stroke-linecap="round"/><polygon points="1980,330 2280,330 2280,630" fill="var(--orange,#ff7517)" fill-opacity="0.1"/><polygon points="1233.2,295.9 1232.7,281.7 1235.1,267.1 1240.5,252.4 1248.7,237.7 1259.7,223.1 1273.3,208.8 1292.6,192.5 1311.6,179.1 1332.9,166.3 1356.2,154.3 1385.8,141.4 1412.8,131.3 1445.9,121 1475.5,113.3 1505.8,106.9 1536.5,101.8 1567.5,98 1598.5,95.6 1634.1,94.5 1663.9,95.1 1697.5,97.5 1725,101.1 1751,106 1775.3,112.2 1797.7,119.6 1817.9,128.2 1838.6,139.6 1853.6,150.5 1866,162.2 1875.7,174.8 1882.5,188 1886.8,204.1 1805.9,227 1727.6,246 1647.5,262.2 1566.2,275.4 1484.2,285.4 1402.3,292.1 1317.3,295.7 1233.2,295.9" fill="#202127" stroke="var(--white,#f6f4f4)" stroke-width="1.3" vector-effect="non-scaling-stroke" stroke-linejoin="round"/><polyline points="1233.2,295.9 1470,602" fill="none" stroke="#b4b4b4" stroke-width="0.6" vector-effect="non-scaling-stroke" stroke-linejoin="round" stroke-opacity="0.5" stroke-linecap="round"/><polyline points="1279.9,289.4 1470,602" fill="none" stroke="#b4b4b4" stroke-width="0.6" vector-effect="non-scaling-stroke" stroke-linejoin="round" stroke-opacity="0.5" stroke-linecap="round"/><polyline points="1326.6,282.8 1470,602" fill="none" stroke="#b4b4b4" stroke-width="0.6" vector-effect="non-scaling-stroke" stroke-linejoin="round" stroke-opacity="0.5" stroke-linecap="round"/><polyline points="1373.3,276.2 1470,602" fill="none" stroke="#b4b4b4" stroke-width="0.6" vector-effect="non-scaling-stroke" stroke-linejoin="round" stroke-opacity="0.5" stroke-linecap="round"/><polyline points="1419.9,269.7 1470,602" fill="none" stroke="#b4b4b4" stroke-width="0.6" vector-effect="non-scaling-stroke" stroke-linejoin="round" stroke-opacity="0.5" stroke-linecap="round"/><polyline points="1466.6,263.1 1470,602" fill="none" stroke="#b4b4b4" stroke-width="0.6" vector-effect="non-scaling-stroke" stroke-linejoin="round" stroke-opacity="0.5" stroke-linecap="round"/><polyline points="1513.3,256.6 1470,602" fill="none" stroke="#b4b4b4" stroke-width="0.6" vector-effect="non-scaling-stroke" stroke-linejoin="round" stroke-opacity="0.5" stroke-linecap="round"/><polyline points="1560,250 1470,602" fill="none" stroke="#b4b4b4" stroke-width="0.6" vector-effect="non-scaling-stroke" stroke-linejoin="round" stroke-opacity="0.5" stroke-linecap="round"/><polyline points="1606.7,243.4 1470,602" fill="none" stroke="#b4b4b4" stroke-width="0.6" vector-effect="non-scaling-stroke" stroke-linejoin="round" stroke-opacity="0.5" stroke-linecap="round"/><polyline points="1653.4,236.9 1470,602" fill="none" stroke="#b4b4b4" stroke-width="0.6" vector-effect="non-scaling-stroke" stroke-linejoin="round" stroke-opacity="0.5" stroke-linecap="round"/><polyline points="1700.1,230.3 1470,602" fill="none" stroke="#b4b4b4" stroke-width="0.6" vector-effect="non-scaling-stroke" stroke-linejoin="round" stroke-opacity="0.5" stroke-linecap="round"/><polyline points="1746.7,223.8 1470,602" fill="none" stroke="#b4b4b4" stroke-width="0.6" vector-effect="non-scaling-stroke" stroke-linejoin="round" stroke-opacity="0.5" stroke-linecap="round"/><polyline points="1793.4,217.2 1470,602" fill="none" stroke="#b4b4b4" stroke-width="0.6" vector-effect="non-scaling-stroke" stroke-linejoin="round" stroke-opacity="0.5" stroke-linecap="round"/><polyline points="1840.1,210.6 1470,602" fill="none" stroke="#b4b4b4" stroke-width="0.6" vector-effect="non-scaling-stroke" stroke-linejoin="round" stroke-opacity="0.5" stroke-linecap="round"/><polyline points="1886.8,204.1 1470,602" fill="none" stroke="#b4b4b4" stroke-width="0.6" vector-effect="non-scaling-stroke" stroke-linejoin="round" stroke-opacity="0.5" stroke-linecap="round"/><polygon points="1268.3,419.5 1266.2,408.5 1260.1,398.1 1249.8,388.5 1235.9,379.9 1218.8,372.7 1196.8,366.3 1173.6,362 1150.8,360.1 1132.1,360.4 1115,362.5 1099.7,366.3 1086.1,371.8 1072.3,380 1060,389.8 1049.2,401 1040.4,413.3 1040.4,435.3 1268.3,441.5" fill="#202127" fill-opacity="0.9" stroke="#b4b4b4" stroke-width="0.9" vector-effect="non-scaling-stroke" stroke-linejoin="round" stroke-opacity="0.9"/><polyline points="1233.2,295.9 1233.2,295.9" fill="none" stroke="#b4b4b4" stroke-width="0.6" vector-effect="non-scaling-stroke" stroke-linejoin="round" stroke-opacity="0.3" stroke-linecap="round"/><polyline points="1287.7,288.3 1276.1,206.2" fill="none" stroke="#b4b4b4" stroke-width="0.6" vector-effect="non-scaling-stroke" stroke-linejoin="round" stroke-opacity="0.3" stroke-linecap="round"/><polyline points="1342.1,280.6 1326.6,169.9" fill="none" stroke="#b4b4b4" stroke-width="0.6" vector-effect="non-scaling-stroke" stroke-linejoin="round" stroke-opacity="0.3" stroke-linecap="round"/><polyline points="1396.6,273 1378.5,144.3" fill="none" stroke="#b4b4b4" stroke-width="0.6" vector-effect="non-scaling-stroke" stroke-linejoin="round" stroke-opacity="0.3" stroke-linecap="round"/><polyline points="1451.1,265.3 1431.4,125.3" fill="none" stroke="#b4b4b4" stroke-width="0.6" vector-effect="non-scaling-stroke" stroke-linejoin="round" stroke-opacity="0.3" stroke-linecap="round"/><polyline points="1505.5,257.7 1485,111.2" fill="none" stroke="#b4b4b4" stroke-width="0.6" vector-effect="non-scaling-stroke" stroke-linejoin="round" stroke-opacity="0.3" stroke-linecap="round"/><polyline points="1560,250 1539.1,101.5" fill="none" stroke="#b4b4b4" stroke-width="0.6" vector-effect="non-scaling-stroke" stroke-linejoin="round" stroke-opacity="0.3" stroke-linecap="round"/><polyline points="1614.5,242.3 1593.9,95.9" fill="none" stroke="#b4b4b4" stroke-width="0.6" vector-effect="non-scaling-stroke" stroke-linejoin="round" stroke-opacity="0.3" stroke-linecap="round"/><polyline points="1668.9,234.7 1649.2,94.6" fill="none" stroke="#b4b4b4" stroke-width="0.6" vector-effect="non-scaling-stroke" stroke-linejoin="round" stroke-opacity="0.3" stroke-linecap="round"/><polyline points="1723.4,227 1705.3,98.4" fill="none" stroke="#b4b4b4" stroke-width="0.6" vector-effect="non-scaling-stroke" stroke-linejoin="round" stroke-opacity="0.3" stroke-linecap="round"/><polyline points="1777.9,219.4 1762.3,108.7" fill="none" stroke="#b4b4b4" stroke-width="0.6" vector-effect="non-scaling-stroke" stroke-linejoin="round" stroke-opacity="0.3" stroke-linecap="round"/><polyline points="1832.3,211.7 1820.8,129.6" fill="none" stroke="#b4b4b4" stroke-width="0.6" vector-effect="non-scaling-stroke" stroke-linejoin="round" stroke-opacity="0.3" stroke-linecap="round"/><polyline points="1886.8,204.1 1886.8,204.1" fill="none" stroke="#b4b4b4" stroke-width="0.6" vector-effect="non-scaling-stroke" stroke-linejoin="round" stroke-opacity="0.3" stroke-linecap="round"/><polyline points="1233.2,295.9 1317.3,295.7 1402.3,292.1 1484.2,285.4 1566.2,275.4 1647.5,262.2 1727.6,246 1805.9,227 1886.8,204.1" fill="none" stroke="#b4b4b4" stroke-width="0.8" vector-effect="non-scaling-stroke" stroke-linejoin="round" stroke-opacity="0.6" stroke-linecap="round"/><polyline points="1268.3,419.5 1268.3,441.5" fill="none" stroke="#b4b4b4" stroke-width="0.6" vector-effect="non-scaling-stroke" stroke-linejoin="round" stroke-opacity="0.3" stroke-linecap="round"/><polyline points="1262.2,401 1262.2,423" fill="none" stroke="#b4b4b4" stroke-width="0.6" vector-effect="non-scaling-stroke" stroke-linejoin="round" stroke-opacity="0.3" stroke-linecap="round"/><polyline points="1244.3,384.7 1244.3,406.7" fill="none" stroke="#b4b4b4" stroke-width="0.6" vector-effect="non-scaling-stroke" stroke-linejoin="round" stroke-opacity="0.3" stroke-linecap="round"/><polyline points="1216.2,371.8 1216.2,393.8" fill="none" stroke="#b4b4b4" stroke-width="0.6" vector-effect="non-scaling-stroke" stroke-linejoin="round" stroke-opacity="0.3" stroke-linecap="round"/><polyline points="1182.3,363.4 1182.3,385.4" fill="none" stroke="#b4b4b4" stroke-width="0.6" vector-effect="non-scaling-stroke" stroke-linejoin="round" stroke-opacity="0.3" stroke-linecap="round"/><polyline points="1148,360 1148,382" fill="none" stroke="#b4b4b4" stroke-width="0.6" vector-effect="non-scaling-stroke" stroke-linejoin="round" stroke-opacity="0.3" stroke-linecap="round"/><polyline points="1117.4,362.1 1117.4,384.1" fill="none" stroke="#b4b4b4" stroke-width="0.6" vector-effect="non-scaling-stroke" stroke-linejoin="round" stroke-opacity="0.3" stroke-linecap="round"/><polyline points="1091.8,369.3 1091.8,391.3" fill="none" stroke="#b4b4b4" stroke-width="0.6" vector-effect="non-scaling-stroke" stroke-linejoin="round" stroke-opacity="0.3" stroke-linecap="round"/><polyline points="1070.7,381.1 1070.7,403.1" fill="none" stroke="#b4b4b4" stroke-width="0.6" vector-effect="non-scaling-stroke" stroke-linejoin="round" stroke-opacity="0.3" stroke-linecap="round"/><polyline points="1053.1,396.7 1053.1,418.7" fill="none" stroke="#b4b4b4" stroke-width="0.6" vector-effect="non-scaling-stroke" stroke-linejoin="round" stroke-opacity="0.3" stroke-linecap="round"/><polyline points="1517.3,104.5 1560.9,98.4" fill="none" stroke="#141519" stroke-width="2.2" vector-effect="non-scaling-stroke" stroke-linejoin="round" stroke-linecap="round"/><polyline points="1980,330 2280,630" fill="none" stroke="var(--orange,#ff7517)" stroke-width="1" vector-effect="non-scaling-stroke" stroke-linejoin="round" stroke-opacity="0.6" stroke-dasharray="10 8.3" stroke-linecap="round"/><circle cx="1470" cy="568" r="12" fill="#202127" stroke="var(--white,#f6f4f4)" stroke-width="1.1" vector-effect="non-scaling-stroke" stroke-linejoin="round"/><polygon points="1454,582 1490,586 1504,626 1472,644 1440,632" fill="#202127" stroke="var(--white,#f6f4f4)" stroke-width="1.1" vector-effect="non-scaling-stroke" stroke-linejoin="round"/><line x1="1980" y1="330" x2="1980" y2="620" fill="none" stroke="var(--orange,#ff7517)" stroke-width="1.9" vector-effect="non-scaling-stroke" stroke-linejoin="round"/><polygon points="1980,630 1973,613.3 1987,613.3" fill="var(--orange,#ff7517)"/><line x1="1980" y1="330" x2="2270" y2="330" fill="none" stroke="var(--orange,#ff7517)" stroke-width="1.9" vector-effect="non-scaling-stroke" stroke-linejoin="round"/><polygon points="2280,330 2263.3,336.9 2263.3,323.1" fill="var(--orange,#ff7517)"/><text x="1966" y="480" text-anchor="end" dominant-baseline="central" font-family="var(--font-body,'DM Sans',sans-serif)" font-size="25" font-weight="400" fill="var(--orange,#ff7517)">5.5 m/s down</text><text x="2130" y="312" text-anchor="middle" dominant-baseline="central" font-family="var(--font-body,'DM Sans',sans-serif)" font-size="25" font-weight="400" fill="var(--orange,#ff7517)">5.5 m/s forward</text><text x="2230" y="585" text-anchor="end" dominant-baseline="central" font-family="var(--font-body,'DM Sans',sans-serif)" font-size="21.7" font-weight="400" fill="#b4b4b4">a 1:1 glide is allowed</text><text x="2230" y="608" text-anchor="end" dominant-baseline="central" font-family="var(--font-body,'DM Sans',sans-serif)" font-size="18.3" font-weight="400" fill="#b4b4b4" fill-opacity="0.8">certified, and still gliding</text><text x="1930" y="180" text-anchor="start" dominant-baseline="central" font-family="var(--font-body,'DM Sans',sans-serif)" font-size="21.7" font-weight="400" fill="#b4b4b4">big enough to dominate the wing,</text><text x="1930" y="202" text-anchor="start" dominant-baseline="central" font-family="var(--font-body,'DM Sans',sans-serif)" font-size="21.7" font-weight="400" fill="#b4b4b4">or it does not work</text><text x="1150" y="492" text-anchor="middle" dominant-baseline="central" font-family="var(--font-body,'DM Sans',sans-serif)" font-size="20" font-weight="400" fill="#b4b4b4" fill-opacity="0.9">the paraglider, neutralised</text></svg>
