<svg class="dk dk-cq-cams" viewBox="0 0 1200 320" role="img" aria-labelledby="dk-cq-cams-t dk-cq-cams-d" xmlns="http://www.w3.org/2000/svg"><title id="dk-cq-cams-t">Where the footage comes from</title><desc id="dk-cq-cams-d">Where the footage comes from. A pilot in flight with the camera positions the filmmakers describe: a helmet mount, a selfie stick or gimbal, a drone flown by a partner, and a compact camera on a tripod on the ground. Schematic.</desc><defs><radialGradient id="dk-cq-cams-glow"><stop offset="0" stop-color="#ff7517" stop-opacity=".16"/><stop offset=".45" stop-color="#ff7517" stop-opacity=".05"/><stop offset="1" stop-color="#ff7517" stop-opacity="0"/></radialGradient></defs><circle cx="575" cy="150" r="280" fill="url(#dk-cq-cams-glow)"/><path class="h" d="M60,260 L1140,260"/><path class="f" d="M683.8,69.8 L681.7,66.5 L678.7,63.3 L674.8,60.3 L670,57.3 L664.3,54.6 L657.8,52 L650.6,49.6 L642.7,47.4 L634.2,45.5 L625.2,43.9 L615.7,42.5 L605.9,41.4 L595.8,40.6 L585.5,40.2 L575.1,40 L564.7,40.2 L554.4,40.6 L544.3,41.4 L534.4,42.5 L524.9,43.8 L515.9,45.5 L507.4,47.4 L499.5,49.5 L492.3,51.9 L485.8,54.5 L480.1,57.3 L475.3,60.2 L471.3,63.3 L468.3,66.5 L466.3,69.7 L466.3,76.7 L468.3,73.5 L471.3,70.3 L475.3,67.2 L480.1,64.3 L485.8,61.5 L492.3,58.9 L499.5,56.5 L507.4,54.4 L515.9,52.5 L524.9,50.8 L534.4,49.5 L544.3,48.4 L554.4,47.6 L564.7,47.2 L575.1,47 L585.5,47.2 L595.8,47.6 L605.9,48.4 L615.7,49.5 L625.2,50.9 L634.2,52.5 L642.7,54.4 L650.6,56.6 L657.8,59 L664.3,61.6 L670,64.3 L674.8,67.3 L678.7,70.3 L681.7,73.5 L683.8,76.8 Z"/><path class="o" d="M683.8,69.8 L681.7,66.5 L678.7,63.3 L674.8,60.3 L670,57.3 L664.3,54.6 L657.8,52 L650.6,49.6 L642.7,47.4 L634.2,45.5 L625.2,43.9 L615.7,42.5 L605.9,41.4 L595.8,40.6 L585.5,40.2 L575.1,40 L564.7,40.2 L554.4,40.6 L544.3,41.4 L534.4,42.5 L524.9,43.8 L515.9,45.5 L507.4,47.4 L499.5,49.5 L492.3,51.9 L485.8,54.5 L480.1,57.3 L475.3,60.2 L471.3,63.3 L468.3,66.5 L466.3,69.7 L466.3,76.7 L468.3,73.5 L471.3,70.3 L475.3,67.2 L480.1,64.3 L485.8,61.5 L492.3,58.9 L499.5,56.5 L507.4,54.4 L515.9,52.5 L524.9,50.8 L534.4,49.5 L544.3,48.4 L554.4,47.6 L564.7,47.2 L575.1,47 L585.5,47.2 L595.8,47.6 L605.9,48.4 L615.7,49.5 L625.2,50.9 L634.2,52.5 L642.7,54.4 L650.6,56.6 L657.8,59 L664.3,61.6 L670,64.3 L674.8,67.3 L678.7,70.3 L681.7,73.5 L683.8,76.8 Z"/><path class="g" d="M683.8,76.8 L575,150"/><path class="g" d="M664.3,61.6 L575,150"/><path class="g" d="M625.2,50.9 L575,150"/><path class="g" d="M575.1,47 L575,150"/><path class="g" d="M524.9,50.8 L575,150"/><path class="g" d="M485.8,61.5 L575,150"/><path class="g" d="M466.3,76.7 L575,150"/><path class="f" d="M569,154 a6,6 0 1,0 12,0 a6,6 0 1,0 -12,0"/><path class="o" d="M569,154 a6,6 0 1,0 12,0 a6,6 0 1,0 -12,0"/><path class="f" d="M568,160 L595,163 L605,178 L570,176 Z"/><path class="o" d="M568,160 L595,163 L605,178 L570,176 Z"/><rect class="fa" x="570" y="142" width="10" height="8"/><text x="555" y="132" class="val" text-anchor="end">helmet mount</text><text x="555" y="148" class="sub" text-anchor="end">easy, but a line can catch it</text><path class="d" d="M590,165 L670,130"/><rect class="fa" x="667" y="124" width="10" height="8"/><text x="685" y="128" class="val">stick or gimbal</text><text x="685" y="144" class="sub">the pilot in frame</text><rect class="fa" x="918" y="79.4" width="14" height="11.2"/><path class="d" d="M917,85 L905,80"/><path class="o" d="M911,79 L899,79"/><path class="d" d="M933,85 L945,80"/><path class="o" d="M939,79 L951,79"/><path class="g" d="M915,90 L635,120"/><text x="925" y="111" class="val" text-anchor="middle">drone</text><text x="925" y="127" class="sub" text-anchor="middle">flown by someone else</text><path class="o" d="M210,220 L193,260"/><path class="o" d="M210,220 L210,260"/><path class="o" d="M210,220 L227,260"/><rect class="fa" x="201" y="206.8" width="18" height="14.4"/><path class="g" d="M220,215 L545,170"/><text x="210" y="284" class="val" text-anchor="middle">compact camera on a tripod</text><text x="210" y="300" class="sub" text-anchor="middle">most of the ground story</text></svg>
